{"glyphs":{"ก":{"ha":914,"x_min":35,"x_max":839,"o":"m 58 286 q 90 383 58 336 q 181 453 121 431 l 35 453 q 98 640 40 565 q 244 748 156 714 q 435 782 333 782 q 728 715 618 782 q 839 518 839 647 l 839 0 l 561 0 l 561 557 q 513 644 561 610 q 379 678 465 678 q 228 634 289 678 q 156 525 168 590 l 426 525 l 426 446 q 355 383 374 425 q 336 271 336 340 l 336 0 l 58 0 l 58 286 z "},"ถ":{"ha":914,"x_min":35,"x_max":839,"o":"m 293 -14 q 124 33 190 -14 q 58 167 58 81 l 58 304 q 89 391 58 351 q 181 453 119 431 l 35 453 q 98 640 40 565 q 244 748 156 714 q 435 782 333 782 q 728 715 618 782 q 839 518 839 647 l 839 0 l 561 0 l 561 557 q 513 644 561 610 q 379 678 465 678 q 228 634 289 678 q 156 525 168 590 l 426 525 l 426 446 q 357 401 378 428 q 336 329 336 375 l 336 294 q 437 247 397 292 q 476 140 476 203 q 424 27 476 68 q 293 -14 372 -14 m 322 56 q 383 80 360 56 q 407 140 407 104 q 383 201 407 176 q 322 225 360 225 q 258 201 282 225 q 235 140 235 176 q 258 80 235 104 q 322 56 282 56 z "},"ภ":{"ha":957,"x_min":3,"x_max":882,"o":"m 186 -14 q 55 27 107 -14 q 3 140 3 68 q 42 247 3 203 q 143 294 82 292 l 143 335 q 238 453 143 422 l 78 453 q 141 640 83 565 q 288 748 199 714 q 478 782 376 782 q 772 715 661 782 q 882 518 882 647 l 882 0 l 604 0 l 604 557 q 556 644 604 610 q 422 678 508 678 q 272 634 332 678 q 199 525 211 590 l 483 525 l 483 446 q 431 390 442 429 q 421 271 421 350 l 421 167 q 355 33 421 81 q 186 -14 289 -14 m 157 56 q 221 80 197 56 q 244 140 244 104 q 221 201 244 176 q 157 225 197 225 q 96 201 119 225 q 72 140 72 176 q 96 80 72 104 q 157 56 119 56 z "},"ฤ":{"ha":914,"x_min":35,"x_max":839,"o":"m 561 557 q 513 644 561 610 q 379 678 465 678 q 228 634 289 678 q 156 525 168 590 l 426 525 l 426 446 q 357 401 378 428 q 336 329 336 375 l 336 294 q 440 247 404 289 q 476 140 476 204 q 424 27 476 68 q 293 -14 372 -14 q 124 33 190 -14 q 58 167 58 81 l 58 304 q 89 391 58 351 q 181 453 119 431 l 35 453 q 98 640 40 565 q 244 748 156 714 q 435 782 333 782 q 728 715 618 782 q 839 518 839 647 l 839 -272 l 561 -272 l 561 557 m 322 56 q 383 80 360 56 q 407 140 407 104 q 383 201 407 176 q 322 225 360 225 q 258 201 282 225 q 235 140 235 176 q 258 80 235 104 q 322 56 282 56 z "},"ฦ":{"ha":957,"x_min":3,"x_max":882,"o":"m 604 557 q 556 644 604 610 q 422 678 508 678 q 272 634 332 678 q 199 525 211 590 l 483 525 l 483 446 q 431 390 442 429 q 421 271 421 350 l 421 167 q 355 33 421 81 q 186 -14 289 -14 q 55 27 107 -14 q 3 140 3 68 q 42 247 3 203 q 143 294 82 292 l 143 335 q 238 453 143 422 l 78 453 q 141 640 83 565 q 288 748 199 714 q 478 782 376 782 q 772 715 661 782 q 882 518 882 647 l 882 -272 l 604 -272 l 604 557 m 157 56 q 221 80 197 56 q 244 140 244 104 q 221 201 244 176 q 157 225 197 225 q 96 201 119 225 q 72 140 72 176 q 96 80 72 104 q 157 56 119 56 z "},"ฎ":{"ha":957,"x_min":3,"x_max":882,"o":"m 478 782 q 772 715 661 782 q 882 518 882 647 l 882 -332 l 625 -332 q 468 -183 563 -232 q 238 -378 415 -378 q 96 -340 143 -378 q 49 -232 49 -303 q 108 -115 49 -158 q 294 -71 168 -71 l 338 -72 q 339 -26 339 -57 l 486 -26 q 482 -108 486 -67 q 604 -183 560 -140 l 604 557 q 556 644 604 610 q 422 678 508 678 q 272 634 332 678 q 199 525 211 590 l 483 525 l 483 446 q 431 390 442 429 q 421 271 421 350 l 421 167 q 355 33 421 81 q 186 -14 289 -14 q 55 27 107 -14 q 3 140 3 68 q 42 247 3 203 q 143 294 82 292 l 143 335 q 238 453 143 422 l 78 453 q 141 640 83 565 q 288 748 199 714 q 478 782 376 782 m 157 56 q 221 80 197 56 q 244 140 244 104 q 221 201 244 176 q 157 225 197 225 q 96 201 119 225 q 72 140 72 176 q 96 80 72 104 q 157 56 119 56 m 206 -300 q 287 -257 257 -300 q 329 -143 317 -214 l 286 -142 q 171 -167 213 -142 q 129 -232 129 -193 q 149 -281 129 -262 q 206 -300 168 -300 z "},"ฏ":{"ha":957,"x_min":3,"x_max":882,"o":"m 478 782 q 772 715 661 782 q 882 518 882 647 l 882 -332 l 624 -332 l 542 -254 l 474 -332 l 429 -332 q 383 -257 413 -290 q 306 -336 351 -307 q 204 -365 260 -365 q 31 -231 31 -365 q 83 -134 31 -171 q 213 -97 135 -97 q 299 -110 256 -97 q 300 -64 300 -94 l 439 -64 q 419 -179 439 -121 q 460 -232 443 -203 l 542 -147 l 604 -204 l 604 557 q 556 644 604 610 q 422 678 508 678 q 272 634 332 678 q 199 525 211 590 l 483 525 l 483 446 q 431 390 442 429 q 421 271 421 350 l 421 167 q 355 33 421 81 q 186 -14 289 -14 q 55 27 107 -14 q 3 140 3 68 q 42 247 3 203 q 143 294 82 292 l 143 335 q 238 453 143 422 l 78 453 q 141 640 83 565 q 288 748 199 714 q 478 782 376 782 m 157 56 q 221 80 197 56 q 244 140 244 104 q 221 201 244 176 q 157 225 197 225 q 96 201 119 225 q 72 140 72 176 q 96 80 72 104 q 157 56 119 56 m 189 -294 q 289 -186 267 -294 q 211 -169 254 -169 q 146 -187 169 -169 q 122 -235 122 -204 q 143 -278 122 -262 q 189 -294 164 -294 z "},"ญ":{"ha":1290,"x_min":35,"x_max":1215,"o":"m 35 453 q 95 642 39 568 q 238 749 151 715 q 421 782 324 782 q 619 752 531 782 q 761 663 708 722 q 814 518 814 604 l 814 106 l 938 106 l 938 768 l 1215 768 l 1215 0 l 538 0 l 538 560 q 493 645 538 613 q 365 678 449 678 q 226 638 281 678 q 156 525 172 597 l 426 525 l 426 446 q 357 401 378 428 q 336 329 336 375 l 336 294 q 437 247 397 292 q 476 140 476 203 q 424 27 476 68 q 293 -14 372 -14 q 124 33 190 -14 q 58 167 58 81 l 58 304 q 89 391 58 351 q 181 453 119 431 l 35 453 m 235 140 q 258 80 235 104 q 322 56 282 56 q 383 80 360 56 q 407 140 407 104 q 383 201 407 176 q 322 225 360 225 q 258 201 282 225 q 235 140 235 176 m 526 -189 q 569 -86 526 -128 q 683 -44 611 -44 q 803 -85 767 -44 q 840 -182 840 -125 q 833 -227 840 -203 q 813 -269 826 -251 q 1018 -49 1001 -262 l 1213 -49 q 1086 -290 1194 -214 q 782 -367 978 -367 q 581 -317 635 -367 q 526 -189 526 -267 m 596 -192 q 619 -252 596 -228 q 683 -276 643 -276 q 744 -252 721 -276 q 768 -192 768 -228 q 744 -131 768 -156 q 683 -107 721 -107 q 619 -131 643 -107 q 596 -192 596 -156 z "},"ข":{"ha":929,"x_min":21,"x_max":854,"o":"m 114 299 q 242 344 179 311 q 347 428 306 376 q 389 547 389 479 q 353 663 389 617 q 236 710 318 710 q 165 693 193 710 q 131 660 138 676 q 178 664 156 664 q 285 628 251 664 q 318 536 318 592 q 274 438 318 476 q 171 400 231 400 q 65 439 110 400 q 21 551 21 478 q 82 715 21 647 q 285 782 143 782 q 478 723 403 782 q 553 543 553 664 q 527 409 553 463 q 468 328 501 356 q 392 275 435 300 l 392 106 l 576 106 l 576 768 l 854 768 l 854 0 l 114 0 l 114 299 m 171 461 q 222 483 201 461 q 243 535 243 504 q 225 588 243 567 q 171 610 207 610 q 119 588 139 610 q 100 535 100 567 q 121 483 100 504 q 171 461 142 461 z "},"ฃ":{"ha":929,"x_min":21,"x_max":854,"o":"m 114 299 q 241 347 178 311 q 347 438 304 382 q 389 561 389 493 q 383 638 389 606 q 358 692 376 669 l 285 642 l 189 700 q 131 631 149 676 q 178 635 156 635 q 285 599 251 635 q 318 507 318 563 q 274 409 318 447 q 171 371 231 371 q 66 412 111 371 q 21 528 21 453 q 59 676 21 600 q 169 783 97 751 l 281 714 l 389 783 q 508 704 463 761 q 553 557 553 647 q 392 275 553 367 l 392 106 l 576 106 l 576 768 l 854 768 l 854 0 l 114 0 l 114 299 m 171 432 q 222 453 201 432 q 243 506 243 475 q 225 559 243 538 q 171 581 207 581 q 119 559 139 581 q 100 506 100 538 q 121 453 100 475 q 171 432 142 432 z "},"ช":{"ha":960,"x_min":21,"x_max":924,"o":"m 114 299 q 242 344 179 311 q 347 428 306 376 q 389 547 389 479 q 353 663 389 617 q 236 710 318 710 q 165 693 193 710 q 131 660 138 676 q 178 664 156 664 q 285 628 251 664 q 318 536 318 592 q 274 438 318 476 q 171 400 231 400 q 65 439 110 400 q 21 551 21 478 q 82 715 21 647 q 285 782 143 782 q 478 723 403 782 q 553 543 553 664 q 527 409 553 463 q 468 328 501 356 q 392 275 435 300 l 392 106 l 608 106 l 608 439 q 569 499 608 489 l 569 601 q 660 668 629 617 q 692 782 692 719 l 924 782 q 886 640 924 697 q 794 558 849 583 q 886 429 886 522 l 886 0 l 114 0 l 114 299 m 171 461 q 222 483 201 461 q 243 535 243 504 q 225 588 243 567 q 171 610 207 610 q 119 588 139 610 q 100 535 100 567 q 121 483 100 504 q 171 461 142 461 z "},"ซ":{"ha":960,"x_min":21,"x_max":924,"o":"m 114 299 q 241 347 178 311 q 347 438 304 382 q 389 561 389 493 q 383 638 389 606 q 358 692 376 669 l 285 642 l 189 700 q 131 631 149 676 q 178 635 156 635 q 285 599 251 635 q 318 507 318 563 q 274 409 318 447 q 171 371 231 371 q 66 412 111 371 q 21 528 21 453 q 59 676 21 600 q 169 783 97 751 l 281 714 l 389 783 q 508 704 463 761 q 553 557 553 647 q 392 275 553 367 l 392 106 l 608 106 l 608 439 q 569 499 608 489 l 569 601 q 660 668 629 617 q 692 782 692 719 l 924 782 q 886 640 924 697 q 794 558 849 583 q 886 429 886 522 l 886 0 l 114 0 l 114 299 m 171 432 q 222 453 201 432 q 243 506 243 475 q 225 559 243 538 q 171 581 207 581 q 119 559 139 581 q 100 506 100 538 q 121 453 100 475 q 171 432 142 432 z "},"ค":{"ha":993,"x_min":38,"x_max":918,"o":"m 75 0 q 89 113 89 56 q 83 197 89 156 q 64 301 76 238 q 44 416 50 374 q 38 506 38 458 q 144 708 38 635 q 475 782 251 782 q 809 717 700 782 q 918 543 918 651 l 918 0 l 640 0 l 640 535 q 465 678 640 678 q 324 635 371 678 q 276 519 276 593 q 294 408 276 486 q 303 363 297 397 q 310 311 310 329 l 325 414 q 374 502 333 472 q 482 532 415 532 q 592 493 551 532 q 632 396 632 454 q 592 301 632 339 q 483 263 551 263 q 388 294 428 263 l 338 0 l 75 0 m 483 322 q 535 344 514 322 q 556 396 556 365 q 538 449 556 428 q 483 471 519 471 q 432 449 451 471 q 413 396 413 428 q 433 344 413 365 q 483 322 454 322 z "},"ฅ":{"ha":993,"x_min":38,"x_max":918,"o":"m 75 0 q 89 113 89 56 q 83 197 89 156 q 64 301 76 238 q 44 416 50 374 q 38 506 38 458 q 103 676 38 608 q 307 768 169 743 l 471 660 l 642 768 q 849 685 779 744 q 918 543 918 625 l 918 0 l 640 0 l 640 535 q 593 644 640 611 l 471 560 l 333 643 q 276 519 276 603 q 282 451 276 499 q 289 388 288 404 q 301 261 301 294 l 317 382 q 369 470 329 440 q 474 500 408 500 q 583 461 543 500 q 624 364 624 422 q 583 269 624 307 q 475 231 543 231 q 379 263 419 231 l 338 0 l 75 0 m 475 290 q 526 312 506 290 q 547 364 547 333 q 529 417 547 396 q 475 439 511 439 q 424 417 443 439 q 404 364 404 396 q 425 312 404 333 q 475 290 446 290 z "},"ศ":{"ha":1003,"x_min":38,"x_max":1003,"o":"m 1003 818 q 899 642 979 697 q 928 543 928 596 l 928 0 l 650 0 l 650 535 q 606 638 650 599 q 465 678 561 678 q 324 635 371 678 q 276 519 276 593 q 294 408 276 486 q 303 363 297 397 q 310 311 310 329 l 335 414 q 492 532 363 532 q 601 493 561 532 q 642 396 642 454 q 601 301 642 339 q 493 263 561 263 q 397 294 438 263 l 338 0 l 75 0 q 89 113 89 56 q 83 197 89 156 q 64 301 76 238 q 44 416 50 374 q 38 506 38 458 q 144 708 38 635 q 475 782 251 782 q 758 742 644 782 q 790 818 782 772 l 1003 818 m 493 471 q 442 449 461 471 q 422 396 422 428 q 443 344 422 365 q 493 322 464 322 q 544 344 524 322 q 565 396 565 365 q 547 449 565 428 q 493 471 529 471 z "},"ด":{"ha":1019,"x_min":38,"x_max":944,"o":"m 75 0 q 89 113 89 56 q 83 197 89 156 q 64 301 76 238 q 44 416 50 374 q 38 506 38 458 q 156 708 38 633 q 500 782 274 782 q 835 717 725 782 q 944 543 944 651 l 944 0 l 667 0 l 667 535 q 490 678 667 678 q 315 519 315 678 q 329 343 315 474 q 346 143 346 204 l 344 125 q 416 178 376 143 q 474 242 456 214 l 468 242 q 385 284 419 242 q 350 381 350 326 q 390 478 350 440 q 494 515 431 515 q 604 476 564 515 q 644 379 644 438 q 560 171 644 272 q 353 0 475 69 l 75 0 m 496 306 q 547 327 526 306 q 568 379 568 349 q 550 433 568 411 q 496 454 532 454 q 444 433 464 454 q 425 379 425 411 q 446 327 425 349 q 496 306 467 306 z "},"ต":{"ha":1019,"x_min":38,"x_max":944,"o":"m 75 0 q 89 113 89 56 q 83 197 89 156 q 64 301 76 238 q 44 416 50 374 q 38 506 38 458 q 120 672 38 603 q 346 768 203 742 l 499 660 l 668 768 q 875 685 806 744 q 944 543 944 625 l 944 0 l 667 0 l 667 535 q 614 644 667 607 l 499 560 l 372 643 q 315 519 315 603 q 329 329 315 471 q 344 125 344 194 q 416 178 376 143 q 474 242 456 214 q 384 287 418 247 q 350 381 350 326 q 390 478 350 440 q 494 515 431 515 q 604 476 564 515 q 644 379 644 438 q 560 171 644 272 q 353 0 475 69 l 75 0 m 496 306 q 547 327 526 306 q 568 379 568 349 q 550 433 568 411 q 496 454 532 454 q 444 433 464 454 q 425 379 425 411 q 446 327 425 349 q 496 306 467 306 z "},"ท":{"ha":976,"x_min":3,"x_max":901,"o":"m 143 474 q 42 521 82 476 q 3 628 3 565 q 55 741 3 700 q 186 782 107 782 q 355 735 289 782 q 421 601 421 688 l 421 335 l 603 768 l 750 768 q 862 731 822 768 q 901 638 901 693 l 901 0 l 624 0 l 624 518 l 404 0 l 143 0 l 143 474 m 157 543 q 221 567 197 543 q 244 628 244 592 q 221 688 244 664 q 157 713 197 713 q 96 688 119 713 q 72 628 72 664 q 96 567 72 592 q 157 543 119 543 z "},"ฑ":{"ha":1035,"x_min":21,"x_max":960,"o":"m 161 325 q 321 424 253 364 q 389 561 389 485 q 383 638 389 606 q 358 692 376 669 l 285 642 l 189 700 q 131 631 149 676 q 178 635 156 635 q 285 599 251 635 q 318 507 318 563 q 274 409 318 447 q 171 371 231 371 q 66 412 111 371 q 21 528 21 453 q 59 676 21 600 q 169 783 97 751 l 281 714 l 389 783 q 508 704 463 761 q 553 557 553 647 q 533 440 553 499 q 482 336 513 381 q 422 275 451 292 l 422 135 l 678 768 l 808 768 q 920 731 881 768 q 960 636 960 693 l 960 0 l 682 0 l 682 511 q 676 518 682 518 l 668 518 l 476 0 l 161 0 l 161 325 m 171 432 q 222 453 201 432 q 243 506 243 475 q 225 559 243 538 q 171 581 207 581 q 119 559 139 581 q 100 506 100 538 q 121 453 100 475 q 171 432 142 432 z "},"น":{"ha":982,"x_min":3,"x_max":931,"o":"m 858 281 q 931 147 931 240 q 736 -14 931 -14 q 544 117 563 -14 q 453 61 488 89 q 410 0 418 33 l 143 0 l 143 474 q 42 521 82 476 q 3 628 3 565 q 55 741 3 700 q 186 782 107 782 q 355 735 289 782 q 421 601 421 688 l 421 188 q 456 210 433 199 q 500 233 478 222 q 596 291 563 263 q 629 365 629 319 l 629 768 l 907 768 l 907 375 q 858 281 907 325 m 157 543 q 221 567 197 543 q 244 628 244 592 q 221 688 244 664 q 157 713 197 713 q 96 688 119 713 q 72 628 72 664 q 96 567 72 592 q 157 543 119 543 m 736 75 q 781 94 764 75 q 799 150 799 113 q 781 208 799 189 q 736 228 764 228 q 692 208 710 228 q 674 150 674 188 q 692 94 674 114 q 736 75 710 75 z "},"ม":{"ha":999,"x_min":46,"x_max":924,"o":"m 238 -14 q 89 35 132 -14 q 46 158 46 85 q 72 281 46 229 q 185 332 99 332 l 189 332 l 189 474 q 88 521 128 476 q 49 628 49 565 q 101 741 49 700 q 232 782 153 782 q 401 735 335 782 q 467 601 467 688 l 467 315 q 569 265 513 300 q 646 206 625 231 l 646 768 l 924 768 l 924 0 l 672 0 q 467 196 601 118 l 467 156 q 412 25 467 64 q 238 -14 357 -14 m 203 543 q 267 567 243 543 q 290 628 290 592 q 267 688 290 664 q 203 713 243 713 q 142 688 165 713 q 118 628 118 664 q 142 567 118 592 q 203 543 165 543 m 164 76 q 184 85 178 76 q 190 125 190 94 l 190 249 l 188 249 q 142 220 156 249 q 129 154 129 192 q 139 97 129 118 q 164 76 149 76 z "},"ฌ":{"ha":1321,"x_min":35,"x_max":1246,"o":"m 1246 768 l 1246 0 l 981 0 q 871 111 960 57 q 817 19 861 51 q 697 -14 774 -14 q 565 28 608 -14 q 522 147 522 69 q 582 278 522 235 q 558 329 558 301 l 558 560 q 509 645 558 613 q 376 678 460 678 q 231 637 290 678 q 156 525 172 596 l 426 525 l 426 446 q 357 401 378 428 q 336 329 336 375 l 336 294 q 437 247 397 292 q 476 140 476 203 q 424 27 476 68 q 293 -14 372 -14 q 124 33 190 -14 q 58 167 58 81 l 58 304 q 89 391 58 351 q 181 453 119 431 l 35 453 q 98 642 39 568 q 245 749 157 715 q 432 782 333 782 q 633 752 542 782 q 781 663 725 722 q 836 518 836 603 l 836 340 q 854 290 836 308 q 907 254 872 272 q 945 232 931 242 q 968 207 960 222 l 968 768 l 1246 768 m 697 63 q 758 87 735 63 q 782 147 782 111 q 758 208 782 183 q 697 232 735 232 q 633 208 657 232 q 610 147 610 183 q 633 87 610 111 q 697 63 657 63 m 322 225 q 258 201 282 225 q 235 140 235 176 q 258 80 235 104 q 322 56 282 56 q 383 80 360 56 q 407 140 407 104 q 383 201 407 176 q 322 225 360 225 z "},"ณ":{"ha":1340,"x_min":35,"x_max":1299,"o":"m 1225 286 q 1299 147 1299 246 q 1254 28 1299 69 q 1122 -14 1210 -14 q 949 122 961 -14 q 842 60 879 88 q 801 0 804 32 l 538 0 l 538 560 q 493 645 538 613 q 365 678 449 678 q 226 638 281 678 q 156 525 172 597 l 426 525 l 426 446 q 357 401 378 428 q 336 329 336 375 l 336 294 q 437 247 397 292 q 476 140 476 203 q 424 27 476 68 q 293 -14 372 -14 q 124 33 190 -14 q 58 167 58 81 l 58 304 q 89 391 58 351 q 181 453 119 431 l 35 453 q 95 642 39 568 q 238 749 151 715 q 421 782 324 782 q 619 752 531 782 q 761 663 708 722 q 814 518 814 604 l 814 188 q 850 214 826 200 q 879 232 874 228 q 960 289 932 264 q 988 350 988 314 l 988 768 l 1265 768 l 1265 375 q 1225 286 1265 329 m 1122 63 q 1183 87 1160 63 q 1207 147 1207 111 q 1183 208 1207 183 q 1122 232 1160 232 q 1058 208 1082 232 q 1035 147 1035 183 q 1058 87 1035 111 q 1122 63 1082 63 m 322 225 q 258 201 282 225 q 235 140 235 176 q 258 80 235 104 q 322 56 282 56 q 383 80 360 56 q 407 140 407 104 q 383 201 407 176 q 322 225 360 225 z "},"ฒ":{"ha":1414,"x_min":38,"x_max":1339,"o":"m 1339 768 l 1339 0 l 1074 0 q 1043 54 1072 28 q 964 107 1014 81 q 910 17 953 49 q 790 -14 867 -14 q 658 28 701 -14 q 615 147 615 69 q 672 275 615 233 q 651 329 651 300 l 651 535 q 644 601 651 576 q 613 644 638 626 l 490 560 l 371 643 q 314 519 314 603 q 324 412 314 476 q 335 333 333 347 q 357 142 357 194 q 410 185 381 157 q 465 242 440 213 q 376 289 410 250 q 342 381 342 328 q 382 478 342 440 q 486 515 422 515 q 596 476 556 515 q 636 379 636 438 q 559 168 636 269 q 365 0 482 67 l 75 0 q 89 113 89 56 q 83 197 89 156 q 64 301 76 238 q 44 416 50 374 q 38 506 38 458 q 119 673 38 604 q 344 768 201 742 l 490 660 l 653 768 q 860 685 790 744 q 929 543 929 625 l 929 342 q 947 306 929 321 q 997 272 964 292 q 1037 248 1022 258 q 1061 225 1051 238 l 1061 768 l 1339 768 m 417 379 q 438 327 417 349 q 488 306 458 306 q 539 327 518 306 q 560 379 560 349 q 542 433 560 411 q 488 454 524 454 q 436 433 456 454 q 417 379 417 411 m 790 63 q 851 87 828 63 q 875 147 875 111 q 851 208 875 183 q 790 232 828 232 q 726 208 750 232 q 703 147 703 183 q 726 87 703 111 q 790 63 750 63 z "},"ฆ":{"ha":981,"x_min":21,"x_max":906,"o":"m 238 -14 q 90 30 135 -14 q 46 153 46 74 q 84 253 46 211 q 183 310 122 296 l 190 311 l 190 322 q 332 419 275 357 q 389 561 389 481 q 383 642 389 607 q 358 699 376 676 l 285 650 l 189 707 q 131 639 149 683 q 178 643 156 643 q 285 607 251 643 q 318 515 318 571 q 274 417 318 456 q 171 379 231 379 q 66 420 111 379 q 21 536 21 461 q 58 676 21 606 q 169 781 96 747 l 281 714 l 389 782 q 508 703 463 760 q 553 557 553 647 q 467 331 553 417 l 467 260 q 629 176 568 222 l 629 768 l 906 768 l 906 0 l 656 0 q 587 67 642 22 q 467 151 532 113 q 411 24 465 61 q 238 -14 357 -14 m 171 440 q 222 462 201 440 q 243 514 243 483 q 225 567 243 546 q 171 589 207 589 q 119 567 139 589 q 100 514 100 546 q 121 462 100 483 q 171 440 142 440 m 164 76 q 184 85 178 76 q 190 125 190 94 l 190 222 l 185 222 q 144 200 160 222 q 128 144 128 178 q 138 94 128 111 q 164 76 147 76 z "},"ธ":{"ha":911,"x_min":82,"x_max":851,"o":"m 83 360 l 360 360 l 360 106 l 560 106 l 560 350 q 542 427 560 407 q 468 447 524 447 q 274 443 397 447 q 82 428 150 439 l 82 513 q 166 707 82 632 q 422 782 250 782 q 558 765 472 782 q 650 753 618 753 q 708 765 681 753 q 774 813 735 776 l 851 696 q 760 640 801 656 q 678 624 719 624 q 622 628 646 624 q 565 640 597 632 q 509 653 535 649 q 450 658 483 658 q 388 628 419 658 q 354 547 357 599 l 490 550 q 747 509 658 550 q 836 350 836 468 l 836 0 l 83 0 l 83 360 z "},"ร":{"ha":761,"x_min":25,"x_max":732,"o":"m 444 -14 q 313 27 365 -14 q 261 140 261 68 q 301 247 261 203 q 401 294 340 292 l 401 376 q 389 429 401 411 q 333 447 376 447 q 187 443 279 447 q 25 428 94 439 l 25 513 q 338 782 25 782 q 456 765 389 782 q 531 753 503 753 q 589 765 561 753 q 656 813 617 776 l 732 690 q 645 640 685 651 q 558 629 606 629 q 461 644 513 629 q 365 658 406 658 q 322 645 346 658 q 281 607 299 632 q 261 547 263 582 l 464 550 q 630 520 581 550 q 679 421 679 490 l 679 167 q 613 33 679 81 q 444 -14 547 -14 m 415 56 q 479 80 456 56 q 503 140 503 104 q 479 201 503 176 q 415 225 456 225 q 354 201 378 225 q 331 140 331 176 q 354 80 331 104 q 415 56 378 56 z "},"จ":{"ha":903,"x_min":22,"x_max":828,"o":"m 393 219 q 268 169 340 169 q 143 217 192 169 q 94 335 94 265 q 143 451 94 403 q 268 499 192 499 q 446 374 394 499 l 514 207 q 529 347 514 253 q 544 456 539 411 q 550 549 550 501 q 393 678 550 678 q 276 647 317 678 q 224 553 235 617 l 22 553 q 84 670 33 618 q 219 752 135 722 q 414 782 304 782 q 715 724 601 782 q 828 549 828 665 q 816 440 828 504 q 782 282 804 375 q 744 108 756 168 q 733 0 733 49 l 485 0 l 393 219 m 261 244 q 326 270 301 244 q 351 333 351 296 q 326 397 351 371 q 261 422 301 422 q 197 397 221 422 q 172 333 172 371 q 197 270 172 296 q 261 244 221 244 z "},"ว":{"ha":835,"x_min":-14,"x_max":760,"o":"m 525 -14 q 394 27 446 -14 q 342 140 342 68 q 381 247 342 203 q 482 294 421 292 l 482 536 q 447 643 482 608 q 347 678 411 678 q 234 633 278 678 q 186 504 190 588 l -14 504 q 38 653 -12 590 q 174 749 89 717 q 364 782 260 782 q 660 724 561 782 q 760 539 760 667 l 760 167 q 694 33 760 81 q 525 -14 628 -14 m 496 56 q 560 80 536 56 q 583 140 583 104 q 560 201 583 176 q 496 225 536 225 q 435 201 458 225 q 411 140 411 176 q 435 80 411 104 q 496 56 458 56 z "},"ง":{"ha":856,"x_min":0,"x_max":781,"o":"m 192 0 q 156 147 188 67 q 81 296 125 228 q 0 396 38 364 l 208 513 q 338 321 286 439 q 400 106 389 203 l 503 106 l 503 474 q 402 521 442 476 q 363 628 363 565 q 415 741 363 700 q 546 782 467 782 q 715 735 649 782 q 781 601 781 688 l 781 0 l 192 0 m 517 543 q 581 567 557 543 q 604 628 604 592 q 581 688 604 664 q 517 713 557 713 q 456 688 479 713 q 432 628 432 664 q 456 567 432 592 q 517 543 479 543 z "},"ฐ":{"ha":864,"x_min":-1,"x_max":804,"o":"m 444 550 q 702 509 614 550 q 790 350 790 468 q 781 269 790 306 q 754 181 772 232 q 726 87 735 125 q 717 0 717 49 l 468 0 l 401 136 q 276 86 349 86 q 151 134 200 86 q 103 251 103 182 q 151 367 103 319 q 276 415 200 415 q 378 385 335 415 q 454 290 421 354 l 497 207 q 500 241 497 222 q 504 269 503 260 q 514 350 514 314 q 495 426 514 406 q 421 447 476 447 q 235 443 353 447 q 49 428 118 439 l 49 513 q 133 707 49 632 q 389 782 217 782 q 471 774 431 782 q 521 765 511 767 q 603 753 576 753 q 660 765 633 753 q 726 813 688 776 l 804 696 q 713 640 754 656 q 631 624 672 624 q 576 628 599 624 q 526 640 554 632 q 476 653 500 649 q 417 658 451 658 q 355 628 386 658 q 321 547 324 599 q 444 550 399 550 m 269 161 q 335 187 310 161 q 360 250 360 213 q 335 313 360 288 q 269 339 310 339 q 205 313 229 339 q 181 250 181 288 q 205 187 181 213 q 269 161 229 161 m 656 -26 q 751 -52 713 -26 q 790 -131 790 -78 l 790 -332 l 563 -332 l 482 -254 q 414 -332 443 -301 l 374 -332 q 344 -279 364 -312 q 168 -365 283 -365 q -1 -229 -1 -365 q 44 -139 -1 -176 q 178 -101 90 -101 q 303 -137 242 -101 q 307 -82 307 -112 l 400 -82 q 381 -206 397 -153 q 400 -232 394 -222 l 482 -147 l 597 -256 l 597 -189 q 553 -162 568 -185 q 539 -112 539 -139 q 566 -51 539 -75 q 656 -26 593 -26 m 628 -143 q 651 -134 642 -143 q 660 -108 660 -125 q 651 -84 660 -93 q 628 -75 642 -75 q 603 -84 614 -75 q 592 -108 592 -93 q 603 -134 592 -125 q 628 -143 614 -143 m 182 -293 q 238 -272 210 -293 q 285 -208 267 -251 q 190 -169 240 -169 q 135 -187 154 -169 q 115 -235 115 -204 q 135 -278 115 -264 q 182 -293 154 -293 z "},"ฉ":{"ha":944,"x_min":10,"x_max":886,"o":"m 821 281 q 869 226 853 261 q 886 147 886 192 q 842 28 886 69 q 710 -14 797 -14 q 536 117 554 -14 q 451 60 483 88 q 407 0 418 32 l 143 0 l 143 197 q 47 243 85 200 q 10 346 10 286 q 60 454 10 414 q 186 494 111 494 q 348 449 285 494 q 411 321 411 403 l 411 175 q 482 228 429 194 q 564 290 536 261 q 592 363 592 319 l 592 549 q 553 648 592 618 q 424 678 515 678 q 299 644 340 678 q 244 547 257 610 l 32 547 q 89 663 40 610 q 227 749 138 717 q 439 782 317 782 q 756 724 642 782 q 869 549 869 665 l 869 379 q 821 281 869 329 m 158 264 q 219 288 196 264 q 242 346 242 311 q 219 404 242 381 q 158 428 196 428 q 99 404 122 428 q 76 346 76 381 q 99 288 76 311 q 158 264 122 264 m 710 63 q 771 87 747 63 q 794 147 794 111 q 771 208 794 183 q 710 232 747 232 q 646 208 669 232 q 622 147 622 183 q 646 87 622 111 q 710 63 669 63 z "},"ล":{"ha":915,"x_min":24,"x_max":840,"o":"m 272 -14 q 94 44 164 -14 q 24 222 24 103 q 113 433 24 354 q 358 511 201 511 q 475 496 426 511 q 563 444 524 481 l 563 535 q 533 642 563 606 q 414 678 504 678 q 297 647 338 678 q 244 553 256 617 l 43 553 q 106 672 54 619 q 244 753 158 724 q 436 782 329 782 q 724 722 608 782 q 840 535 840 661 l 840 0 l 563 0 l 563 249 q 538 331 563 294 q 472 387 513 367 q 386 407 431 407 q 298 372 335 407 q 253 279 261 338 q 315 294 278 294 q 417 249 379 294 q 456 140 456 204 q 403 27 456 68 q 272 -14 351 -14 m 301 56 q 363 80 339 56 q 386 140 386 104 q 363 201 386 176 q 301 225 339 225 q 238 201 261 225 q 214 140 214 176 q 238 80 214 104 q 301 56 261 56 z "},"ส":{"ha":913,"x_min":24,"x_max":914,"o":"m 914 818 q 810 642 890 697 q 839 535 839 596 l 839 0 l 563 0 l 563 249 q 538 331 563 294 q 472 387 513 367 q 386 407 431 407 q 298 372 335 407 q 253 279 261 338 q 315 294 278 294 q 417 249 379 294 q 456 140 456 204 q 403 27 456 68 q 272 -14 351 -14 q 94 44 164 -14 q 24 222 24 103 q 113 433 24 354 q 358 511 201 511 q 475 496 426 511 q 563 444 524 481 l 563 535 q 533 642 563 606 q 414 678 504 678 q 297 647 338 678 q 244 553 256 617 l 43 553 q 106 672 54 619 q 244 753 158 724 q 436 782 329 782 q 672 744 575 782 q 701 818 696 778 l 914 818 m 301 225 q 238 201 261 225 q 214 140 214 176 q 238 80 214 104 q 301 56 261 56 q 363 80 339 56 q 386 140 386 104 q 363 201 386 176 q 301 225 339 225 z "},"บ":{"ha":988,"x_min":3,"x_max":913,"o":"m 50 106 l 143 106 l 143 474 q 42 521 82 476 q 3 628 3 565 q 55 741 3 700 q 186 782 107 782 q 355 735 289 782 q 421 601 421 688 l 421 106 l 635 106 l 635 768 l 913 768 l 913 0 l 50 0 l 50 106 m 157 543 q 221 567 197 543 q 244 628 244 592 q 221 688 244 664 q 157 713 197 713 q 96 688 119 713 q 72 628 72 664 q 96 567 72 592 q 157 543 119 543 z "},"ป":{"ha":988,"x_min":3,"x_max":913,"o":"m 50 106 l 143 106 l 143 474 q 42 521 82 476 q 3 628 3 565 q 55 741 3 700 q 186 782 107 782 q 355 735 289 782 q 421 601 421 688 l 421 106 l 635 106 l 635 965 l 913 965 l 913 0 l 50 0 l 50 106 m 157 543 q 221 567 197 543 q 244 628 244 592 q 221 688 244 664 q 157 713 197 713 q 96 688 119 713 q 72 628 72 664 q 96 567 72 592 q 157 543 119 543 z "},"ษ":{"ha":1058,"x_min":3,"x_max":1100,"o":"m 1100 557 q 931 307 1081 390 l 931 0 l 50 0 l 50 106 l 143 106 l 143 474 q 42 521 82 476 q 3 628 3 565 q 55 741 3 700 q 186 782 107 782 q 355 735 289 782 q 421 601 421 688 l 421 506 q 540 561 463 561 q 653 521 615 561 l 653 768 l 931 768 l 931 465 q 958 557 954 507 l 1100 557 m 157 543 q 221 567 197 543 q 244 628 244 592 q 221 688 244 664 q 157 713 197 713 q 96 688 119 713 q 72 628 72 664 q 96 567 72 592 q 157 543 119 543 m 542 483 q 501 466 517 483 q 486 415 486 449 q 502 364 486 382 q 542 346 518 346 q 581 364 565 346 q 597 415 597 382 q 581 466 597 449 q 542 483 565 483 m 653 240 l 633 240 q 421 315 474 240 l 421 106 l 653 106 l 653 240 z "},"ย":{"ha":929,"x_min":39,"x_max":854,"o":"m 50 239 q 80 317 50 281 q 160 367 110 353 q 72 453 106 394 q 39 581 39 513 q 99 732 39 682 q 271 782 160 782 q 405 741 353 782 q 457 628 457 700 q 417 521 457 565 q 317 474 378 476 q 353 441 321 453 q 424 429 385 429 l 518 429 l 518 308 l 415 308 q 351 282 374 308 q 328 217 328 256 l 328 106 l 576 106 l 576 768 l 854 768 l 854 0 l 50 0 l 50 239 m 303 543 q 364 567 340 543 q 388 628 388 592 q 364 688 388 664 q 303 713 340 713 q 239 688 263 713 q 215 628 215 664 q 239 567 215 592 q 303 543 263 543 z "},"ผ":{"ha":1007,"x_min":67,"x_max":932,"o":"m 67 581 q 127 732 67 682 q 299 782 188 782 q 433 741 381 782 q 485 628 485 700 q 445 521 485 565 q 344 474 406 476 l 344 236 l 440 432 l 560 432 l 654 239 l 654 768 l 932 768 l 932 0 l 653 0 l 499 314 l 343 0 l 67 0 l 67 581 m 331 543 q 392 567 368 543 q 415 628 415 592 q 392 688 415 664 q 331 713 368 713 q 267 688 290 713 q 243 628 243 664 q 267 567 243 592 q 331 543 290 543 z "},"ฝ":{"ha":1007,"x_min":67,"x_max":932,"o":"m 67 581 q 127 732 67 682 q 299 782 188 782 q 433 741 381 782 q 485 628 485 700 q 445 521 485 565 q 344 474 406 476 l 344 236 l 440 432 l 560 432 l 654 239 l 654 965 l 932 965 l 932 0 l 653 0 l 499 314 l 343 0 l 67 0 l 67 581 m 331 543 q 392 567 368 543 q 415 628 415 592 q 392 688 415 664 q 331 713 368 713 q 267 688 290 713 q 243 628 243 664 q 267 567 243 592 q 331 543 290 543 z "},"ฟ":{"ha":1079,"x_min":3,"x_max":1004,"o":"m 143 474 q 42 521 82 476 q 3 628 3 565 q 55 741 3 700 q 186 782 107 782 q 355 735 289 782 q 421 601 421 688 l 421 385 l 513 656 l 638 656 l 726 383 l 726 965 l 1004 965 l 1004 0 l 725 0 l 574 467 l 421 0 l 143 0 l 143 474 m 157 543 q 221 567 197 543 q 244 628 244 592 q 221 688 244 664 q 157 713 197 713 q 96 688 119 713 q 72 628 72 664 q 96 567 72 592 q 157 543 119 543 z "},"พ":{"ha":1079,"x_min":3,"x_max":1004,"o":"m 143 474 q 42 521 82 476 q 3 628 3 565 q 55 741 3 700 q 186 782 107 782 q 355 735 289 782 q 421 601 421 688 l 421 385 l 513 656 l 638 656 l 726 383 l 726 768 l 1004 768 l 1004 0 l 725 0 l 574 467 l 421 0 l 143 0 l 143 474 m 157 543 q 221 567 197 543 q 244 628 244 592 q 221 688 244 664 q 157 713 197 713 q 96 688 119 713 q 72 628 72 664 q 96 567 72 592 q 157 543 119 543 z "},"ห":{"ha":975,"x_min":3,"x_max":919,"o":"m 861 504 q 900 419 900 475 l 900 0 l 624 0 l 624 314 l 403 0 l 143 0 l 143 474 q 42 521 82 476 q 3 628 3 565 q 55 741 3 700 q 186 782 107 782 q 355 735 289 782 q 421 601 421 688 l 421 286 l 553 463 q 590 501 571 489 q 529 633 529 546 q 724 782 529 782 q 919 633 919 782 q 861 504 919 546 m 157 543 q 221 567 197 543 q 244 628 244 592 q 221 688 244 664 q 157 713 197 713 q 96 688 119 713 q 72 628 72 664 q 96 567 72 592 q 157 543 119 543 m 724 713 q 663 688 686 713 q 639 628 639 664 q 663 567 639 592 q 724 543 686 543 q 788 567 764 543 q 811 628 811 592 q 788 688 811 664 q 724 713 764 713 z "},"ฬ":{"ha":1079,"x_min":3,"x_max":1024,"o":"m 1024 1114 q 954 951 1004 1021 q 1004 835 1004 899 l 1004 0 l 725 0 l 574 467 l 421 0 l 143 0 l 143 474 q 42 521 82 476 q 3 628 3 565 q 55 741 3 700 q 186 782 107 782 q 355 735 289 782 q 421 601 421 688 l 421 385 l 513 656 l 638 656 l 726 383 l 726 792 q 547 767 644 767 q 335 802 401 767 q 268 911 268 838 q 353 1029 268 988 q 581 1071 439 1071 q 806 1038 706 1071 q 817 1114 817 1074 l 1024 1114 m 532 861 q 713 908 639 861 q 647 961 690 943 q 557 979 603 979 q 470 963 503 979 q 438 913 438 946 q 462 874 438 888 q 532 861 486 861 m 157 543 q 221 567 197 543 q 244 628 244 592 q 221 688 244 664 q 157 713 197 713 q 96 688 119 713 q 72 628 72 664 q 96 567 72 592 q 157 543 119 543 z "},"อ":{"ha":915,"x_min":43,"x_max":840,"o":"m 65 279 q 126 431 65 381 q 297 481 186 481 q 431 440 379 481 q 483 326 483 399 q 444 219 483 264 q 343 172 404 175 l 343 106 l 563 106 l 563 535 q 533 642 563 606 q 414 678 504 678 q 297 647 338 678 q 244 553 256 617 l 43 553 q 106 672 54 619 q 244 753 158 724 q 436 782 329 782 q 724 722 608 782 q 840 535 840 661 l 840 0 l 65 0 l 65 279 m 329 242 q 390 266 367 242 q 414 326 414 290 q 390 387 414 363 q 329 411 367 411 q 265 387 289 411 q 242 326 242 363 q 265 266 242 290 q 329 242 289 242 z "},"ฮ":{"ha":915,"x_min":51,"x_max":858,"o":"m 782 668 q 840 546 840 617 l 840 0 l 65 0 l 65 249 q 126 400 65 350 q 297 450 186 450 q 431 409 379 450 q 483 296 483 368 q 444 189 483 233 q 343 142 404 144 l 343 106 l 563 106 l 563 518 q 331 478 456 478 q 118 513 185 478 q 51 622 51 549 q 139 742 51 701 q 392 782 226 782 q 511 773 447 782 q 633 746 575 764 q 647 825 644 779 l 858 825 q 782 668 838 738 m 317 572 q 430 584 371 572 q 538 625 489 596 q 459 674 510 658 q 360 690 408 690 q 260 674 300 690 q 221 624 221 657 q 246 586 221 600 q 317 572 271 572 m 242 296 q 265 235 242 260 q 329 211 289 211 q 390 235 367 211 q 414 296 414 260 q 390 356 414 332 q 329 381 367 381 q 265 356 289 381 q 242 296 242 332 z "},"า":{"ha":797,"x_min":25,"x_max":722,"o":"m 444 542 q 417 646 444 614 q 331 678 389 678 q 204 504 213 678 l 25 504 q 71 653 26 590 q 190 749 115 717 q 358 782 264 782 q 629 724 536 782 q 722 539 722 667 l 722 0 l 444 0 l 444 542 z "},"ำ":{"ha":797,"x_min":-418,"x_max":722,"o":"m -219 881 q -371 918 -324 881 q -418 1018 -418 956 q -371 1118 -418 1081 q -219 1156 -324 1156 q -68 1118 -115 1156 q -21 1018 -21 1081 q -68 918 -21 956 q -219 881 -115 881 m -219 933 q -158 958 -182 933 q -135 1018 -135 982 q -158 1078 -135 1054 q -219 1103 -182 1103 q -283 1078 -260 1103 q -307 1018 -307 1054 q -283 958 -307 982 q -219 933 -260 933 m 444 542 q 417 646 444 614 q 331 678 389 678 q 204 504 213 678 l 25 504 q 71 653 26 590 q 190 749 115 717 q 358 782 264 782 q 629 724 536 782 q 722 539 722 667 l 722 0 l 444 0 l 444 542 z "},"ๅ":{"ha":796,"x_min":25,"x_max":721,"o":"m 444 542 q 417 646 444 614 q 331 678 389 678 q 204 504 213 678 l 25 504 q 71 653 26 590 q 190 749 115 717 q 358 782 264 782 q 628 724 536 782 q 721 539 721 667 l 721 -272 l 444 -272 l 444 542 z "},"ะ":{"ha":658,"x_min":26,"x_max":624,"o":"m 26 581 q 67 678 26 640 q 182 715 107 715 q 285 678 244 715 q 325 588 325 640 q 272 471 325 504 q 410 553 367 486 q 460 704 454 621 l 624 704 q 517 475 607 550 q 286 400 428 400 q 93 450 160 400 q 26 581 26 500 m 94 578 q 115 522 94 544 q 174 499 136 499 q 234 522 213 499 q 256 578 256 544 q 234 634 256 611 q 174 657 213 657 q 115 634 136 657 q 94 578 94 611 m 26 196 q 67 293 26 256 q 182 331 107 331 q 285 293 244 331 q 325 203 325 256 q 272 86 325 119 q 410 169 367 101 q 460 319 454 236 l 624 319 q 517 90 607 165 q 286 15 428 15 q 93 65 160 15 q 26 196 26 115 m 94 193 q 115 137 94 160 q 174 114 136 114 q 234 137 213 114 q 256 193 256 160 q 234 249 256 226 q 174 272 213 272 q 115 249 136 272 q 94 193 94 226 z "},"เ":{"ha":475,"x_min":50,"x_max":468,"o":"m 285 -14 q 116 33 182 -14 q 50 167 50 81 l 50 768 l 328 768 l 328 294 q 428 247 389 292 q 468 140 468 203 q 416 27 468 68 q 285 -14 364 -14 m 314 56 q 375 80 351 56 q 399 140 399 104 q 375 201 399 176 q 314 225 351 225 q 250 201 274 225 q 226 140 226 176 q 250 80 226 104 q 314 56 274 56 z "},"แ":{"ha":936,"x_min":50,"x_max":929,"o":"m 50 768 l 328 768 l 328 294 q 428 247 389 292 q 468 140 468 203 q 416 27 468 68 q 285 -14 364 -14 q 116 33 182 -14 q 50 167 50 81 l 50 768 m 511 768 l 789 768 l 789 294 q 890 247 850 292 q 929 140 929 203 q 877 27 929 68 q 746 -14 825 -14 q 577 33 643 -14 q 511 167 511 81 l 511 768 m 226 140 q 250 80 226 104 q 314 56 274 56 q 375 80 351 56 q 399 140 399 104 q 375 201 399 176 q 314 225 351 225 q 250 201 274 225 q 226 140 226 176 m 688 140 q 711 80 688 104 q 775 56 735 56 q 836 80 813 56 q 860 140 860 104 q 836 201 860 176 q 775 225 813 225 q 711 201 735 225 q 688 140 688 176 z "},"ไ":{"ha":640,"x_min":-133,"x_max":629,"o":"m 446 -14 q 277 33 343 -14 q 211 167 211 81 l 211 996 l 131 881 l 24 918 q -12 1008 17 954 q -76 1108 -42 1061 q -133 1171 -111 1154 l 3 1247 q 84 1147 43 1211 q 136 1036 125 1082 l 269 1222 l 489 1222 l 489 294 q 590 247 550 292 q 629 140 629 203 q 577 27 629 68 q 446 -14 525 -14 m 475 56 q 536 80 513 56 q 560 140 560 104 q 536 201 560 176 q 475 225 513 225 q 411 201 435 225 q 388 140 388 176 q 411 80 388 104 q 475 56 435 56 z "},"ใ":{"ha":564,"x_min":-64,"x_max":557,"o":"m 372 -14 q 203 33 269 -14 q 138 167 138 81 l 138 694 q 163 777 138 739 q 236 867 188 815 q 302 948 281 915 q 324 1017 324 981 q 292 1097 324 1071 q 211 1124 260 1124 q 133 1109 167 1124 q 88 1069 100 1094 l 93 1069 q 203 1032 168 1069 q 238 940 238 994 q 197 847 238 882 q 99 811 156 811 q -15 855 33 811 q -64 981 -64 899 q 20 1160 -64 1097 q 238 1222 104 1222 q 469 1169 381 1222 q 557 1015 557 1117 q 538 924 557 961 q 482 843 519 888 q 432 770 449 801 q 415 694 415 739 l 415 294 q 516 247 476 292 q 556 140 556 203 q 503 27 556 68 q 372 -14 451 -14 m 96 869 q 147 890 128 869 q 167 940 167 910 q 147 991 167 971 q 96 1011 128 1011 q 42 991 63 1011 q 22 940 22 971 q 42 890 22 910 q 96 869 63 869 m 401 56 q 463 80 439 56 q 486 140 486 104 q 463 201 486 176 q 401 225 439 225 q 338 201 361 225 q 314 140 314 176 q 338 80 314 104 q 401 56 361 56 z "},"โ":{"ha":544,"x_min":-62,"x_max":604,"o":"m 353 -14 q 184 33 250 -14 q 118 167 118 81 l 118 801 q 106 874 118 849 q 60 913 93 900 q -35 925 26 925 l -62 925 l -62 1000 q 6 1163 -62 1103 q 225 1222 74 1222 q 298 1213 267 1222 q 367 1188 329 1204 q 390 1178 371 1186 q 422 1171 408 1171 q 464 1185 443 1171 q 511 1236 485 1199 l 604 1157 q 539 1083 582 1113 q 449 1054 496 1054 q 392 1062 417 1054 q 336 1083 367 1069 q 310 1094 332 1085 q 271 1103 289 1103 q 197 1088 232 1103 q 156 1025 161 1072 l 165 1025 q 333 969 271 1025 q 396 801 396 914 l 396 294 q 497 247 457 292 q 536 140 536 203 q 484 27 536 68 q 353 -14 432 -14 m 382 56 q 443 80 419 56 q 467 140 467 104 q 443 201 467 176 q 382 225 419 225 q 318 201 342 225 q 294 140 294 176 q 318 80 294 104 q 382 56 342 56 z "},"๐":{"ha":978,"x_min":39,"x_max":929,"o":"m 485 -14 q 147 69 256 -14 q 39 297 39 151 q 147 524 39 442 q 485 607 256 607 q 821 524 713 607 q 929 297 929 442 q 821 69 929 151 q 485 -14 713 -14 m 485 79 q 619 140 571 79 q 667 297 667 200 q 619 455 667 394 q 485 515 571 515 q 349 455 397 515 q 301 297 301 394 q 349 140 301 200 q 485 79 397 79 z "},"๑":{"ha":999,"x_min":39,"x_max":950,"o":"m 574 -36 q 653 91 614 4 q 693 276 693 178 q 644 449 693 383 q 501 515 594 515 q 356 453 410 515 q 303 286 303 390 q 335 140 303 194 q 418 85 368 85 q 501 139 471 85 q 385 179 424 139 q 346 286 346 219 q 387 378 346 340 q 497 417 428 417 q 612 378 569 417 q 654 268 654 340 q 622 133 654 197 q 526 27 590 68 q 372 -14 463 -14 q 113 65 188 -14 q 39 279 39 143 q 160 522 39 436 q 492 607 281 607 q 833 518 715 607 q 950 269 950 429 q 922 110 950 192 q 835 -36 893 28 l 574 -36 m 497 204 q 549 224 529 204 q 568 275 568 244 q 549 326 568 306 q 497 346 529 346 q 444 326 464 346 q 424 275 424 306 q 444 224 424 244 q 497 204 464 204 z "},"๒":{"ha":1185,"x_min":94,"x_max":1117,"o":"m 297 0 q 149 31 203 0 q 94 150 94 61 l 94 889 l 357 889 l 357 197 q 378 122 357 147 q 447 97 399 97 l 772 97 q 837 121 819 97 q 854 197 854 144 l 854 425 q 832 515 854 515 q 795 474 808 515 q 782 374 782 432 l 676 374 q 660 474 676 438 q 607 511 643 511 q 565 481 581 511 q 546 413 549 451 q 565 414 554 414 q 647 378 617 414 q 678 285 678 342 q 639 193 678 229 q 542 157 600 157 q 425 205 463 157 q 388 331 388 253 q 434 527 388 447 q 601 607 481 607 q 682 587 643 607 q 732 531 721 567 q 790 588 746 569 q 883 607 833 607 q 1056 560 996 607 q 1117 433 1117 514 l 1117 150 q 1067 31 1117 61 q 926 0 1018 0 l 297 0 m 540 215 q 592 235 572 215 q 611 286 611 256 q 592 337 611 317 q 540 357 572 357 q 487 337 507 357 q 467 286 467 317 q 487 235 467 256 q 540 215 507 215 z "},"๓":{"ha":1072,"x_min":39,"x_max":994,"o":"m 256 -14 q 94 58 149 -14 q 39 276 39 131 q 74 435 39 360 q 184 559 110 511 q 368 607 258 607 q 483 583 426 607 q 561 510 540 560 q 631 581 579 556 q 750 607 683 607 q 933 561 871 607 q 994 415 994 515 l 994 0 l 732 0 l 732 446 q 722 478 732 468 q 696 488 711 488 q 672 477 682 488 q 661 446 661 467 l 661 0 l 456 0 l 456 421 q 443 469 456 450 q 403 488 431 488 q 324 443 351 488 q 296 329 296 399 q 300 276 296 294 q 390 231 351 269 q 428 139 428 193 q 390 31 428 75 q 256 -14 351 -14 m 276 63 q 328 83 308 63 q 347 133 347 103 q 328 184 347 164 q 276 204 308 204 q 223 184 243 204 q 203 133 203 164 q 223 83 203 103 q 276 63 243 63 z "},"๔":{"ha":1068,"x_min":40,"x_max":1092,"o":"m 946 -39 q 721 26 817 26 q 565 7 668 26 q 399 -14 464 -14 q 136 63 232 -14 q 40 275 40 139 q 136 515 40 436 q 460 593 232 593 l 735 593 q 838 632 800 593 q 878 782 875 671 l 1092 782 q 1051 605 1086 665 q 945 523 1015 544 q 749 501 875 501 l 513 501 q 408 475 456 501 q 331 398 360 449 q 303 276 303 347 q 326 176 303 219 q 386 108 350 132 q 458 85 422 85 q 603 113 517 85 q 489 178 528 133 q 450 283 450 224 q 503 398 450 356 q 654 440 557 440 q 792 399 739 440 q 844 296 844 358 q 754 168 844 200 q 843 131 774 157 q 1007 63 942 92 l 946 -39 m 650 222 q 701 242 682 222 q 721 293 721 263 q 701 344 721 324 q 650 364 682 364 q 597 344 617 364 q 576 293 576 324 q 597 242 576 263 q 650 222 617 222 z "},"๕":{"ha":1068,"x_min":40,"x_max":1092,"o":"m 513 501 q 408 475 456 501 q 331 398 360 449 q 303 276 303 347 q 326 176 303 219 q 386 108 350 132 q 458 85 422 85 q 603 113 517 85 q 489 178 528 133 q 450 283 450 224 q 503 398 450 356 q 654 440 557 440 q 792 399 739 440 q 844 296 844 358 q 754 168 844 200 q 843 131 774 157 q 1007 63 942 92 l 946 -39 q 721 26 817 26 q 565 7 668 26 q 399 -14 464 -14 q 136 63 232 -14 q 40 275 40 139 q 126 505 40 426 q 411 592 211 583 q 392 654 392 619 q 440 743 392 708 q 579 778 489 778 q 717 743 669 778 q 765 654 765 708 q 747 593 765 619 q 840 638 806 597 q 878 782 875 678 l 1092 782 q 1051 605 1086 665 q 945 523 1015 544 q 749 501 875 501 l 513 501 m 578 728 q 524 708 544 728 q 504 657 504 688 q 524 606 504 626 q 578 586 544 586 q 629 606 610 586 q 649 657 649 626 q 629 708 649 688 q 578 728 610 728 m 576 293 q 597 242 576 263 q 650 222 617 222 q 701 242 682 222 q 721 293 721 263 q 701 344 721 324 q 650 364 682 364 q 597 344 617 364 q 576 293 576 324 z "},"๖":{"ha":994,"x_min":-12,"x_max":946,"o":"m 515 -14 q 260 38 339 -14 q 181 185 181 89 q 229 294 181 251 q 372 336 278 336 q 504 296 454 336 q 554 193 554 256 q 542 127 554 157 q 503 79 529 97 l 524 79 q 637 138 590 79 q 683 306 683 197 q 635 462 683 407 q 511 517 586 517 q 267 385 361 517 l 128 385 q 83 609 128 483 q -12 819 38 735 l 221 819 q 275 676 253 763 q 301 528 297 590 q 564 607 396 607 q 751 572 664 607 q 892 469 839 538 q 946 307 946 401 q 903 147 946 219 q 764 31 860 75 q 515 -14 668 -14 m 371 121 q 422 141 403 121 q 442 192 442 161 q 422 242 442 222 q 371 263 403 263 q 317 242 338 263 q 297 192 297 222 q 317 141 297 161 q 371 121 338 121 z "},"๗":{"ha":1315,"x_min":39,"x_max":1278,"o":"m 256 -14 q 39 269 39 -14 q 99 510 39 413 q 311 607 160 607 q 496 533 440 607 q 697 607 550 607 q 869 562 817 607 q 922 415 922 517 l 922 113 q 964 194 954 119 q 976 401 974 268 l 978 450 q 993 683 982 592 q 1038 819 1004 775 l 1278 819 q 1251 674 1258 761 q 1243 432 1243 588 q 1225 234 1243 326 q 1141 71 1207 142 q 944 0 1075 0 l 668 0 l 668 474 q 658 506 668 496 q 632 515 647 515 q 608 505 618 515 q 597 474 597 494 l 597 249 l 392 249 l 392 472 q 353 515 392 515 q 310 462 325 515 q 296 336 296 408 q 300 276 296 304 q 390 231 351 269 q 428 139 428 193 q 390 31 428 75 q 256 -14 351 -14 m 276 63 q 328 83 308 63 q 347 133 347 103 q 328 184 347 164 q 276 204 308 204 q 223 184 243 204 q 203 133 203 164 q 223 83 203 103 q 276 63 243 63 z "},"๘":{"ha":1015,"x_min":39,"x_max":969,"o":"m 314 -15 q 96 94 153 8 q 39 275 39 179 q 137 512 39 431 q 453 593 235 593 l 613 593 q 715 632 678 593 q 756 782 753 671 l 969 782 q 927 605 963 665 q 822 523 892 544 q 626 501 751 501 l 461 501 q 341 442 381 501 q 301 276 301 382 q 308 228 301 254 q 325 181 315 201 q 403 262 356 226 q 506 315 451 297 q 566 185 524 250 q 656 96 608 119 q 618 193 618 139 q 662 285 618 246 q 776 325 706 325 q 905 281 865 325 q 944 172 944 238 q 913 72 944 114 q 828 8 881 29 q 714 -14 775 -14 q 546 35 622 -14 q 450 168 469 83 q 368 76 407 132 q 314 -15 329 21 m 779 107 q 831 127 811 107 q 850 178 850 147 q 831 228 850 208 q 779 249 811 249 q 726 228 746 249 q 706 178 706 208 q 726 127 706 147 q 779 107 746 107 z "},"๙":{"ha":1040,"x_min":39,"x_max":997,"o":"m 699 -24 q 557 181 610 72 q 468 419 504 290 q 403 515 440 515 q 324 443 350 515 q 299 285 299 371 q 303 226 299 250 q 344 253 319 244 q 393 261 369 261 q 491 226 454 261 q 528 129 528 190 q 478 24 528 63 q 318 -14 428 -14 q 185 15 250 -14 q 80 107 121 44 q 39 261 39 169 q 83 447 39 368 q 203 566 128 525 q 367 607 278 607 q 482 594 436 607 q 565 540 528 582 q 608 591 583 575 q 657 607 632 607 q 701 592 682 607 q 740 551 719 578 q 774 521 763 521 q 801 544 794 521 q 808 622 808 568 q 789 831 808 710 l 969 831 q 997 629 997 735 q 960 449 997 519 q 842 378 922 378 q 710 438 783 378 q 674 460 682 460 q 653 414 653 460 q 728 222 653 339 q 899 14 804 106 l 699 -24 m 385 60 q 436 80 417 60 q 456 131 456 100 q 436 181 456 161 q 385 201 417 201 q 331 181 351 201 q 311 131 311 161 q 331 80 311 100 q 385 60 351 60 z "},"๚":{"ha":1222,"x_min":38,"x_max":1147,"o":"m 1147 768 l 1147 0 l 871 0 l 871 449 q 809 394 849 415 q 722 372 769 374 l 722 0 l 446 0 l 446 449 q 377 394 422 415 q 282 372 332 372 q 103 439 168 372 q 38 618 38 506 q 80 736 38 690 q 201 782 122 782 q 320 745 282 782 q 358 653 358 708 q 326 556 358 594 q 235 517 293 517 q 292 497 254 497 q 399 546 353 497 q 444 686 444 594 l 444 768 l 722 768 l 722 497 q 826 548 782 500 q 869 686 869 596 l 869 768 l 1147 768 m 122 643 q 144 588 122 610 q 201 567 165 567 q 256 588 235 567 q 278 643 278 610 q 256 698 278 676 q 201 719 235 719 q 144 698 165 719 q 122 643 122 676 z "},"๏":{"ha":965,"x_min":110,"x_max":847,"o":"m 479 -11 q 290 34 375 -11 q 158 163 206 79 q 110 353 110 246 q 158 542 110 460 q 291 671 207 625 q 479 717 375 717 q 667 671 583 717 q 799 542 751 625 q 847 353 847 460 q 799 163 847 246 q 667 34 751 79 q 479 -11 583 -11 m 479 86 q 615 119 554 86 q 712 213 676 153 q 747 353 747 274 q 712 493 747 432 q 615 588 676 554 q 479 621 554 621 q 340 588 403 621 q 242 493 278 554 q 207 353 207 432 q 242 213 207 274 q 340 119 278 153 q 479 86 403 86 m 479 151 q 331 207 389 151 q 274 353 274 263 q 332 499 274 443 q 479 554 390 554 q 624 498 567 554 q 682 353 682 442 q 624 207 682 263 q 479 151 567 151 m 479 231 q 568 263 535 231 q 601 353 601 296 q 567 441 601 408 q 479 474 533 474 q 390 441 424 474 q 356 353 356 408 q 390 263 356 296 q 479 231 424 231 z "},"๛":{"ha":1529,"x_min":64,"x_max":1469,"o":"m 376 32 q 217 74 288 32 q 105 194 146 117 q 64 375 64 272 q 137 628 64 542 q 335 715 210 715 q 525 636 460 715 q 590 442 590 557 q 548 299 590 356 q 425 242 506 242 q 308 285 349 242 q 267 392 267 329 q 303 488 267 444 q 414 531 339 531 q 503 506 475 531 q 450 594 488 565 q 360 622 413 622 q 244 551 285 622 q 203 374 203 481 q 256 197 203 261 q 394 132 310 132 q 592 255 536 132 q 647 557 647 378 l 772 557 l 819 428 l 835 543 l 946 543 l 976 461 l 996 511 l 1081 511 l 1121 433 l 1135 485 l 1204 485 l 1261 422 l 1469 394 l 1469 353 l 1228 324 l 1181 356 l 1167 282 l 1081 282 l 1039 346 l 1015 256 l 933 256 l 896 353 l 872 225 l 771 225 l 722 354 q 603 112 688 192 q 376 32 519 32 m 419 304 q 481 328 457 304 q 504 389 504 351 q 481 450 504 426 q 419 474 457 474 q 356 450 379 474 q 332 389 332 426 q 356 328 332 351 q 419 304 379 304 z "},"ๆ":{"ha":1022,"x_min":69,"x_max":904,"o":"m 628 556 q 624 608 628 590 q 607 640 619 626 l 472 542 l 344 642 q 279 567 299 611 q 260 478 260 524 q 263 449 260 463 q 302 475 278 464 q 350 486 326 486 q 458 452 415 486 q 500 354 500 418 q 452 240 500 283 q 331 196 404 196 q 123 282 176 196 q 69 474 69 368 q 130 667 69 571 q 364 782 190 764 l 475 693 l 617 782 q 824 710 744 779 q 904 525 904 642 l 904 -272 l 628 -272 l 628 556 m 354 271 q 409 292 388 271 q 431 347 431 314 q 409 402 431 381 q 354 424 388 424 q 297 402 318 424 q 275 347 275 381 q 297 292 275 314 q 354 271 318 271 z "},"ฯ":{"ha":799,"x_min":38,"x_max":724,"o":"m 446 449 q 377 394 422 415 q 282 372 332 372 q 103 439 168 372 q 38 618 38 506 q 80 736 38 690 q 201 782 122 782 q 320 745 282 782 q 358 653 358 708 q 326 556 358 594 q 235 517 293 517 q 292 497 254 497 q 399 546 353 497 q 444 686 444 594 l 444 768 l 724 768 l 724 0 l 446 0 l 446 449 m 201 567 q 256 588 235 567 q 278 643 278 610 q 256 698 278 676 q 201 719 235 719 q 144 698 165 719 q 122 643 122 676 q 144 588 122 610 q 201 567 165 567 z "},"฿":{"ha":990,"x_min":15,"x_max":950,"o":"m 704 514 q 892 422 835 492 q 950 271 950 351 q 867 71 950 142 q 594 0 783 0 l 497 0 l 497 -136 l 411 -136 l 411 0 l 15 0 l 15 67 l 60 67 q 135 122 135 67 l 135 850 q 60 906 135 906 l 15 906 l 15 972 l 411 972 l 411 1082 l 497 1082 l 497 972 l 540 972 q 815 915 733 972 q 896 743 896 858 q 846 599 896 663 q 704 514 796 535 m 606 728 q 478 878 606 878 l 424 878 l 424 557 l 486 557 q 576 602 547 557 q 606 728 606 647 m 517 94 q 624 144 586 94 q 661 286 661 194 q 619 419 661 374 q 500 464 576 464 l 424 464 l 424 94 l 517 94 z "},"ั":{"ha":0,"x_min":-560,"x_max":93,"o":"m -292 879 q -491 928 -422 879 q -560 1060 -560 978 q -519 1157 -560 1119 q -400 1194 -479 1194 q -294 1157 -333 1194 q -254 1067 -254 1119 q -297 971 -254 1015 q -149 1040 -196 978 q -96 1183 -101 1101 l 93 1183 q -32 956 76 1032 q -292 879 -140 879 m -407 992 q -356 1012 -375 992 q -336 1063 -336 1032 q -356 1113 -336 1093 q -407 1133 -375 1133 q -460 1113 -440 1133 q -481 1063 -481 1093 q -460 1012 -481 1032 q -407 992 -440 992 z "},"่":{"ha":0,"x_min":-322,"x_max":-81,"o":"m -322 1183 l -81 1183 l -81 889 l -322 889 l -322 1183 z "},"้":{"ha":0,"x_min":-612,"x_max":14,"o":"m -596 956 q -553 974 -576 961 q -512 1004 -529 988 q -588 1051 -564 1014 q -612 1129 -612 1088 q -577 1219 -612 1179 q -464 1260 -542 1260 q -338 1221 -382 1260 q -294 1124 -294 1182 q -315 1038 -294 1074 q -365 978 -335 1001 q -205 1054 -251 990 q -153 1229 -158 1118 l 14 1229 q -92 965 4 1042 q -362 889 -189 889 l -596 889 l -596 956 m -467 1060 q -415 1080 -435 1060 q -396 1131 -396 1100 q -415 1181 -396 1161 q -467 1201 -435 1201 q -520 1181 -500 1201 q -540 1131 -540 1161 q -520 1080 -540 1100 q -467 1060 -500 1060 z "},"๊":{"ha":0,"x_min":-737,"x_max":29,"o":"m -597 875 q -701 915 -665 875 q -737 1024 -737 956 q -556 1256 -737 1189 l -456 1171 l -354 1251 q -224 1190 -261 1232 q -187 1090 -187 1149 q -225 992 -187 1039 q -153 1079 -176 1011 q -131 1231 -131 1147 l 29 1231 q -46 985 22 1081 q -226 889 -114 889 l -403 889 l -403 954 l -400 960 q -353 1013 -371 979 q -336 1083 -336 1047 q -357 1149 -336 1119 l -456 1072 l -550 1150 q -572 1127 -561 1142 q -589 1100 -583 1113 l -581 1100 q -502 1069 -532 1100 q -472 989 -472 1039 q -507 908 -472 942 q -597 875 -542 875 m -594 926 q -549 944 -565 926 q -532 989 -532 961 q -549 1034 -532 1017 q -594 1051 -565 1051 q -642 1034 -625 1051 q -660 989 -660 1017 q -642 944 -660 961 q -594 926 -625 926 z "},"๋":{"ha":0,"x_min":-517,"x_max":1,"o":"m 1 990 l -137 990 l -137 889 l -378 889 l -378 990 l -517 990 l -517 1089 l -378 1089 l -378 1183 l -137 1183 l -137 1089 l 1 1089 l 1 990 z "},"์":{"ha":0,"x_min":-496,"x_max":-39,"o":"m -331 875 q -449 916 -403 875 q -496 1036 -496 957 q -460 1138 -496 1093 q -372 1201 -425 1183 l -250 1243 q -209 1274 -222 1253 q -196 1314 -196 1294 l -39 1314 q -59 1224 -39 1263 q -124 1169 -79 1185 l -261 1122 q -197 1080 -218 1111 q -176 1004 -176 1049 q -222 910 -176 946 q -331 875 -268 875 m -321 942 q -274 960 -292 942 q -256 1007 -256 978 q -274 1054 -256 1036 q -321 1072 -292 1072 q -371 1054 -353 1072 q -389 1007 -389 1036 q -371 960 -389 978 q -321 942 -353 942 z "},"็":{"ha":0,"x_min":-731,"x_max":-99,"o":"m -567 878 q -689 947 -647 893 q -731 1068 -731 1000 q -681 1208 -731 1151 q -533 1264 -632 1264 l -343 1264 q -286 1277 -299 1264 q -271 1335 -274 1290 l -99 1335 q -132 1213 -99 1265 q -237 1160 -165 1160 l -468 1160 q -534 1138 -512 1160 q -556 1076 -556 1115 q -547 1019 -556 1042 q -487 1058 -526 1039 q -422 1081 -449 1076 q -397 1052 -414 1072 q -362 1021 -379 1032 q -327 1088 -358 1061 q -249 1115 -296 1115 q -156 1084 -186 1115 q -126 1006 -126 1053 q -158 918 -126 957 q -253 879 -189 879 q -343 901 -300 879 q -433 971 -386 922 q -508 931 -468 957 q -567 878 -547 906 m -247 939 q -203 956 -219 939 q -187 999 -187 972 q -203 1042 -187 1025 q -247 1058 -219 1058 q -293 1042 -276 1058 q -310 999 -310 1025 q -293 956 -310 972 q -247 939 -276 939 z "},"๎":{"ha":0,"x_min":-419,"x_max":-78,"o":"m -265 886 q -374 913 -328 886 q -419 997 -419 940 q -405 1047 -419 1025 q -358 1081 -390 1069 q -378 1110 -372 1093 q -385 1142 -385 1128 q -353 1217 -385 1190 q -261 1244 -321 1244 l -78 1244 l -78 1169 l -189 1169 q -224 1140 -224 1169 q -201 1115 -224 1121 q -156 1108 -179 1108 q -125 1106 -133 1107 l -125 1038 q -227 1031 -199 1038 q -256 1003 -256 1024 q -225 985 -256 985 q -176 992 -204 985 q -137 1006 -149 1000 l -92 942 q -167 902 -115 918 q -265 886 -218 886 z "},"ิ":{"ha":0,"x_min":-829,"x_max":-72,"o":"m -829 889 q -731 1069 -818 997 q -481 1140 -643 1140 q -217 1078 -324 1140 q -72 889 -111 1017 l -829 889 m -332 983 q -483 1049 -382 1049 q -589 1031 -546 1049 q -649 983 -632 1013 l -332 983 z "},"ี":{"ha":0,"x_min":-829,"x_max":-75,"o":"m -829 889 q -731 1069 -818 997 q -481 1140 -643 1140 q -385 1126 -433 1140 q -306 1086 -336 1113 l -306 1185 l -75 1185 l -75 889 l -829 889 m -332 983 q -483 1049 -382 1049 q -589 1031 -546 1049 q -649 983 -632 1013 l -332 983 z "},"ึ":{"ha":0,"x_min":-829,"x_max":-51,"o":"m -51 1100 q -68 1032 -51 1061 q -118 988 -85 1003 q -72 889 -87 943 l -829 889 q -731 1069 -818 997 q -481 1140 -643 1140 q -319 1121 -394 1140 q -278 1197 -312 1168 q -186 1225 -243 1225 q -87 1190 -122 1225 q -51 1100 -51 1154 m -185 1165 q -237 1147 -218 1165 q -256 1097 -256 1128 q -237 1049 -256 1068 q -185 1029 -218 1029 q -135 1049 -154 1029 q -117 1097 -117 1068 q -135 1146 -117 1126 q -185 1165 -154 1165 m -331 983 q -483 1049 -382 1049 q -589 1031 -546 1049 q -649 983 -632 1013 l -331 983 z "},"ื":{"ha":0,"x_min":-829,"x_max":-75,"o":"m -75 1185 l -75 889 l -829 889 q -736 1065 -818 994 q -503 1140 -654 1135 l -503 1185 l -337 1185 l -337 1113 q -261 1060 -293 1093 l -261 1185 l -75 1185 m -332 983 q -483 1049 -382 1049 q -589 1031 -546 1049 q -649 983 -632 1013 l -332 983 z "},"ํ":{"ha":0,"x_min":-418,"x_max":-21,"o":"m -219 881 q -371 918 -324 881 q -418 1018 -418 956 q -371 1118 -418 1081 q -219 1156 -324 1156 q -68 1118 -115 1156 q -21 1018 -21 1081 q -68 918 -21 956 q -219 881 -115 881 m -219 933 q -158 958 -182 933 q -135 1018 -135 982 q -158 1078 -135 1054 q -219 1103 -182 1103 q -283 1078 -260 1103 q -307 1018 -307 1054 q -283 958 -307 982 q -219 933 -260 933 z "},"ฺ":{"ha":0,"x_min":-325,"x_max":-64,"o":"m -193 -333 q -287 -295 -250 -333 q -325 -201 -325 -257 q -287 -110 -325 -147 q -193 -72 -250 -72 q -100 -110 -136 -72 q -64 -201 -64 -147 q -100 -295 -64 -257 q -193 -333 -136 -333 z "},"ุ":{"ha":0,"x_min":-426,"x_max":-75,"o":"m -290 -328 q -391 -292 -356 -326 q -426 -197 -426 -257 q -384 -106 -426 -139 q -262 -72 -342 -72 q -111 -122 -147 -72 q -75 -251 -75 -172 l -75 -476 l -290 -476 l -290 -328 m -279 -278 q -224 -256 -246 -278 q -203 -201 -203 -235 q -224 -147 -203 -168 q -279 -125 -246 -125 q -337 -147 -315 -125 q -358 -201 -358 -168 q -337 -256 -358 -235 q -279 -278 -315 -278 z "},"ู":{"ha":0,"x_min":-674,"x_max":-75,"o":"m -589 -396 l -539 -396 l -539 -331 q -639 -295 -604 -329 q -674 -200 -674 -261 q -633 -109 -674 -143 q -521 -75 -593 -75 q -400 -118 -436 -75 q -364 -231 -364 -161 l -364 -396 l -276 -396 l -276 -89 l -75 -89 l -75 -485 l -589 -485 l -589 -396 m -533 -278 q -478 -256 -500 -278 q -457 -201 -457 -235 q -478 -147 -457 -168 q -533 -125 -500 -125 q -591 -147 -569 -125 q -612 -201 -612 -168 q -591 -256 -612 -235 q -533 -278 -569 -278 z "}}}
